<?xml version="1.0" standalone="no"?>
<!DOCTYPE svg PUBLIC "-//W3C//DTD SVG 20010904//EN"
 "http://www.w3.org/TR/2001/REC-SVG-20010904/DTD/svg10.dtd">
<svg version="1.0" xmlns="http://www.w3.org/2000/svg"
 width="180.000000pt" height="180.000000pt" viewBox="0 0 180.000000 180.000000"
 preserveAspectRatio="xMidYMid meet">
<metadata>
Created by potrace 1.14, written by Peter Selinger 2001-2017
</metadata>
<g transform="translate(0.000000,180.000000) scale(0.100000,-0.100000)"
fill="#000000" stroke="none">
<path d="M991 1645 c-141 -31 -168 -51 -382 -286 -397 -435 -384 -414 -383
-609 0 -101 4 -124 28 -185 65 -168 184 -284 404 -394 56 -28 102 -54 102 -56
0 -3 -9 -1 -21 5 -26 14 -29 12 -22 -22 l5 -28 114 0 c99 0 115 2 126 19 14
19 171 194 368 410 l115 126 -62 7 c-149 16 -301 72 -411 151 -108 78 -182
232 -182 379 0 46 5 46 107 18 90 -25 169 -60 227 -99 l44 -31 95 103 c209
226 337 370 337 378 0 22 -186 93 -298 115 -91 17 -227 17 -311 -1z"/>
</g>
</svg>
